<svg version="1" xmlns="http://www.w3.org/2000/svg" width="237.333" height="237.333" viewBox="0 0 178.000000 178.000000"><path d="M87 4.5c-.6 1.6-1.3 3.7-1.5 4.5-.2.8-1.7 5.5-3.3 10.5l-3 9-7.9 2.6c-4.3 1.4-9.6 3.7-11.9 5.2-6.3 4-4.8 4.2-21.8-3.7-5.5-2.5-10.1-4.4-10.3-4.2-.2.2 2.3 5.8 5.6 12.5C36.3 47.5 39 53.4 39 54c0 .6-1.2 2.9-2.6 5.1-1.4 2.3-3.8 7.8-5.2 12.4l-2.6 8.2-13.3 4.9c-7.3 2.6-13 5.1-12.5 5.5.4.3 6.4 2.5 13.4 4.8l12.6 4.2 2.2 7c1.9 6.5 3.9 10.8 7.5 16.3 1.3 2 1 3.1-4.5 15.1-3.3 7-5.8 13-5.6 13.2.2.2 5.9-2.4 12.7-5.7l12.3-6.2 7.1 3.5c3.9 2 9.8 4.3 13.1 5.2l6 1.7 4.9 13.4c2.7 7.3 5.1 13.1 5.4 12.8.3-.3 2.6-6.4 5.1-13.7 2.5-7.3 5-13.2 5.5-13.2 4.2-.1 15.2-4.6 21.7-8.9 2.2-1.4 3.1-1.2 15.2 4.4 7.1 3.3 13.1 5.8 13.3 5.6.2-.2-2.4-6.1-5.9-13-5.8-11.6-6.2-12.8-4.8-14.9 2.9-4.6 6.1-12 7.5-17.4.8-3.1 1.6-5.7 1.7-5.8.2-.1 6.3-2.4 13.5-5.1 7.3-2.6 12.9-5.1 12.5-5.5-.4-.4-6.4-2.5-13.4-4.8l-12.6-4.2-2.2-7.2c-1.2-4-3-8.6-4-10.2-5.3-8.7-5.4-7.4 1.1-21.2 3.3-6.9 5.8-12.8 5.5-13-.2-.2-5.8 2.3-12.5 5.6-6.6 3.4-12.5 6.1-13 6.1-.6 0-3.1-1.3-5.6-2.9-2.5-1.6-8-3.9-12.3-5.1l-7.8-2.3-2.3-6.3c-1.3-3.6-3.6-9.7-5.1-13.7l-2.8-7.2-1.2 3zM103.4 51c6.7 2.5 14.9 8.8 18.8 14.5 9.8 14.1 9.7 33.7-.2 47.4-4.1 5.6-11.9 11.5-18.7 14.2-8 3.1-20.5 3.1-28.6 0-27-10.5-35-44.8-15.3-65.9C70.5 49.3 88 45.3 103.4 51z"/><path d="M83.1 57.6c-7.6 2.2-11.2 7.3-10.4 14.8.5 5.2 3.7 9.4 8.7 11.7 5.2 2.4 6.8 2.4 8.4-.1 3.9-6.3 18.7-8.6 25.2-4 1.9 1.3 4 3.1 4.7 4 1.9 2.5 2.2.8.6-4-5.6-16.3-22.8-26.7-37.2-22.4zm4.8 12.3c1.3 2.4-.8 5.5-3.5 4.9-2-.3-3-2.9-2-5.4.8-2 4.3-1.7 5.5.5z"/><path d="M66.7 64.5c-8.8 8.2-12.7 25.1-8.2 35.7 1.9 4.7 6.9 10.4 10.8 12.5 3.5 1.7 9.4 1.2 13.2-1.3 2.9-1.9 6.5-9 6.5-12.7 0-4.3-2.1-7.6-5.5-8.7-8.3-2.8-14.7-10.5-15-18.4-.1-2.8.2-5.9.7-6.9 1.5-2.8.5-2.9-2.5-.2zm11.5 34.8c.9 1.5-.7 5.2-2.3 5.3-3.4.1-5.2-3.9-2.8-6.3 1.2-1.2 3.9-.6 5.1 1z"/><path d="M100.3 82.1c-1.7.5-4.2 2.2-5.6 3.9-2.2 2.6-2.4 3.6-2 9.2.3 3.5 0 8.2-.6 10.5-1.5 5.5-6.8 10.9-12.3 12.4-4.1 1.1-4.2 1.2-1.8 2.1 4.7 1.9 16.1 1.2 22.5-1.2 11.3-4.4 20.5-16.9 18.9-25.7-1.7-9.2-9.7-13.9-19.1-11.2zm8.7 11c0 1-.8 2.3-1.9 2.8-2.6 1.5-5.6-.9-4.7-3.7 1.3-3.8 6.6-3.1 6.6.9z"/></svg>