<!-- Generated by IcoMoon.io -->
<svg version="1.1" xmlns="http://www.w3.org/2000/svg" width="44" height="44" viewBox="0 0 1378 1408">
<title></title>
<g id="icomoon-ignore">
</g>
<path fill="#f40050" d="M601.065 947.4c-3.131-0.939-14.714-4.384-12.21-9.705 2.505-5.635 13.149-3.131 16.28-3.444 129.291-21.601 128.353-175.937 104.247-224.147 57.601-107.69 213.191-79.203 219.138 38.506-10.644 168.422-206.929 240.426-327.141 198.791zM942.293 660.956c1.251 5.635 3.131 14.087-1.565 15.652-6.574 1.251-10.017-9.705-11.897-12.522-91.099-104.561-226.339-30.68-246.060 15.026-122.090 0.313-171.241-150.265-70.751-211.625 148.701-67.62 300.532 58.228 330.586 193.468zM525.932 501.296c2.19-1.878 10.956-11.584 14.4-6.26 3.444 5.948-4.070 12.522-5.948 15.652-43.827 124.596 87.343 209.121 135.865 206.617 61.046 105.5-44.767 223.208-148.075 166.545-132.422-94.542-103.933-292.080 3.757-382.553zM629.865 567.352c-0.1 0.89-0.157 1.921-0.157 2.966 0 15.561 12.614 28.175 28.175 28.175s28.175-12.614 28.175-28.175c0-1.045-0.056-2.076-0.168-3.091l0.011 0.125c-1.551-14.231-13.503-25.209-28.018-25.209s-26.467 10.978-28.007 25.084l-0.011 0.125zM790.463 735.775c-0.199 1.258-0.313 2.71-0.313 4.188 0 15.561 12.614 28.175 28.175 28.175s28.175-12.614 28.175-28.175c0-1.478-0.114-2.929-0.333-4.346l0.019 0.158c-2.109-13.655-13.779-23.985-27.862-23.985s-25.752 10.332-27.842 23.829l-0.019 0.158zM552.54 798.385c-0.1 0.89-0.157 1.921-0.157 2.966 0 15.561 12.614 28.175 28.175 28.175s28.175-12.614 28.175-28.175c0-1.045-0.056-2.076-0.168-3.091l0.011 0.125c-2.109-13.655-13.779-23.985-27.862-23.985s-25.752 10.332-27.842 23.829l-0.019 0.158z"></path>
<path fill="#fff" d="M1180.842 1186.261l-104.874-207.243c40.711-56.51 69.62-124.223 81.65-197.616l0.37-2.738 219.764-81.394-220.704-72.629c-13.025-76.051-42.551-143.517-84.817-201.039l0.918 1.31 98.299-212.877-207.243 104.56c-56.588-40.774-124.42-69.695-197.944-81.656l-2.724-0.366-81.394-219.451-72.003 220.39c-73.881 12.522-141.815 41.95-200.042 84.212l-212.878-98.612 104.874 207.556c-40.73 56.502-69.644 124.22-81.652 197.623l-0.368 2.732-220.077 81.394 220.704 72.317c12.522 73.881 41.636 141.815 83.898 199.728l-97.987 213.191 207.243-104.874c56.501 40.73 124.22 69.644 197.623 81.652l2.732 0.369 81.394 220.077 72.317-220.704c73.881-12.522 141.815-41.636 199.728-83.898zM369.403 704.157c0-176.562 143.38-319.942 319.316-319.942 176.525 0 319.628 143.102 319.628 319.628s-143.102 319.628-319.628 319.628v0c-175.937 0-319.316-143.38-319.316-319.316z"></path>
</svg>
