<!-- Generated by IcoMoon.io -->
<svg version="1.1" xmlns="http://www.w3.org/2000/svg" width="33" height="32" viewBox="0 0 33 32">
<title>brand-circle</title>
<path fill="#f40050" d="M27.681 27.207l-2.44-4.813c0.948-1.314 1.622-2.889 1.902-4.597l0.009-0.064 5.113-1.886-5.133-1.682c-0.304-1.767-0.99-3.335-1.973-4.671l0.021 0.030 2.287-4.95-4.818 2.435c-1.316-0.946-2.893-1.617-4.603-1.893l-0.063-0.008-1.891-5.108-1.677 5.118c-1.769 0.305-3.337 0.992-4.676 1.973l0.031-0.022-4.95-2.277 2.435 4.813c-0.948 1.314-1.62 2.89-1.898 4.598l-0.008 0.063-5.113 1.886 5.133 1.682c0.285 1.713 0.966 3.288 1.947 4.635l-2.277 4.95 4.818-2.435c1.314 0.947 2.89 1.619 4.597 1.897l0.063 0.009 1.891 5.108 1.677-5.123c1.769-0.305 3.338-0.991 4.676-1.973l-0.031 0.022zM8.824 16c0-4.091 3.329-7.421 7.421-7.421 4.097 0 7.426 3.329 7.426 7.421s-3.329 7.421-7.421 7.421c-4.097 0-7.426-3.324-7.426-7.421z"></path>
</svg>
